<?xml version="1.0"?>
<svg xmlns="http://www.w3.org/2000/svg" xmlns:xlink="http://www.w3.org/1999/xlink" version="1.1" id="Capa_1" x="0px" y="0px" viewBox="0 0 197.723 197.723" style="enable-background:new 0 0 197.723 197.723;" xml:space="preserve" width="512px" height="512px" class=""><g transform="matrix(6.12262e-17 0.9999 -0.9999 6.12262e-17 197.713 0.00988613)"><path d="M136.14,94.01c-0.064-0.127-6.051-11.94-9.446-18.893c-0.662-28.985-4.961-44.893-7.461-51.795  c0.94-2.383,1.402-5.337,0.856-8.73c-0.126-0.788-0.211-1.533-0.292-2.225c-0.351-3.006-1.417-12.153-11.133-12.366  C108.609,0.001,108.555,0,108.5,0H89.221c-0.055,0-0.109,0.001-0.164,0.002c-9.716,0.212-10.782,9.36-11.133,12.366  c-0.081,0.691-0.166,1.437-0.293,2.226c-0.545,3.392-0.083,6.347,0.858,8.729c-2.501,6.904-6.8,22.812-7.46,51.794  c-3.396,6.952-9.382,18.766-9.446,18.893c-0.533,1.051-0.811,2.212-0.811,3.391v92.821c0,4.142,3.357,7.5,7.5,7.5h61.178  c4.143,0,7.5-3.358,7.5-7.5V97.401C136.95,96.223,136.673,95.062,136.14,94.01z M85.248,80.176c0.472-0.977,0.726-2.044,0.745-3.129  c0.64-36.239,7.357-50.546,7.549-50.944c0.022-0.043,0.038-0.087,0.059-0.131c0.073-0.151,0.143-0.303,0.205-0.457  c0.03-0.076,0.06-0.151,0.088-0.228c0.053-0.145,0.102-0.291,0.146-0.438c0.026-0.088,0.052-0.175,0.075-0.264  c0.034-0.133,0.063-0.268,0.091-0.402c0.02-0.1,0.041-0.199,0.058-0.299c0.02-0.124,0.032-0.249,0.046-0.373  c0.012-0.108,0.025-0.216,0.033-0.325c0.008-0.121,0.007-0.242,0.009-0.363c0.002-0.109,0.008-0.218,0.005-0.327  c-0.006-0.223-0.021-0.445-0.048-0.666c-0.008-0.066-0.022-0.131-0.031-0.197c-0.024-0.164-0.049-0.328-0.083-0.491  c-0.016-0.071-0.036-0.141-0.054-0.212c-0.037-0.155-0.076-0.31-0.124-0.462c-0.021-0.071-0.049-0.141-0.073-0.212  c-0.051-0.148-0.104-0.296-0.165-0.442c-0.03-0.073-0.064-0.144-0.098-0.216c-0.063-0.138-0.127-0.274-0.198-0.409  c-0.041-0.078-0.085-0.153-0.128-0.229c-0.07-0.122-0.143-0.242-0.221-0.361c-0.056-0.085-0.113-0.168-0.173-0.251  c-0.072-0.102-0.146-0.202-0.225-0.3c-0.073-0.093-0.149-0.184-0.227-0.273c-0.035-0.04-0.065-0.082-0.101-0.121  c-0.004-0.067-0.01-0.149-0.013-0.168c0.003-0.044,0.009-0.168,0.01-0.21c0.009-0.053,0.041-0.315,0.038-0.315  c0,0-0.001,0.004-0.003,0.015c0.11-0.685,0.198-1.345,0.276-1.976h12.287c0.078,0.631,0.166,1.291,0.275,1.975  c0.047,0.292,0.05,0.487,0.043,0.62c-1.961,2.125-2.569,5.25-1.367,8.015c0.043,0.104,0.092,0.207,0.141,0.309  c0.029,0.058,0.051,0.118,0.081,0.176c0.068,0.139,6.905,14.374,7.553,50.953c0.02,1.084,0.273,2.151,0.745,3.128  c2.622,5.432,7.534,15.175,9.476,19.015v83.532H75.772V99.191C77.714,95.351,82.625,85.608,85.248,80.176z" data-original="#000000" class="active-path" fill="#000000"/></g> </svg>
