<?xml version="1.0" encoding="iso-8859-1"?>
<!-- Generator: Adobe Illustrator 19.0.0, SVG Export Plug-In . SVG Version: 6.00 Build 0)  -->
<svg version="1.1" id="Capa_1" xmlns="http://www.w3.org/2000/svg" xmlns:xlink="http://www.w3.org/1999/xlink" x="0px" y="0px"
	 viewBox="0 0 464.207 464.207" style="enable-background:new 0 0 464.207 464.207;" xml:space="preserve">
<g>
	<g>
		<path d="M461.891,251.732l-14.8-46.96c-2.331-8.94-8.076-16.61-16-21.36c-5.951-2.963-12.846-3.395-19.12-1.2l-17.84,5.76
			l-5.04-16c-0.577-2.594-2.662-4.585-5.28-5.04c0.602-3.336,0.382-6.768-0.64-10c-4.806-11.69-17.362-18.188-29.68-15.36
			c-7.367-10.212-19.427-15.97-32-15.28c-5.297,0.01-10.561,0.846-15.6,2.48c-10.665,3.354-19.794,10.385-25.76,19.84
			c-4.149,0.074-8.268,0.72-12.24,1.92c-7.768,2.379-14.541,7.241-19.28,13.84c-3.331,4.661-5.07,10.272-4.96,16
			c-4.8,2.489-8.795,6.29-11.52,10.96c-2.736-4.779-6.791-8.667-11.68-11.2c0.116-5.729-1.624-11.341-4.96-16
			c-4.739-6.599-11.512-11.461-19.28-13.84c-3.929-1.117-7.995-1.682-12.08-1.68c-6.042-9.35-15.194-16.264-25.84-19.52
			c-5.039-1.634-10.303-2.47-15.6-2.48c-12.443-0.597-24.341,5.156-31.6,15.28c-1.773-0.275-3.566-0.409-5.36-0.4
			c-10.77-0.626-20.681,5.873-24.4,16c-1.022,3.232-1.242,6.664-0.64,10c-2.618,0.455-4.703,2.445-5.28,5.04l-5.04,16l-17.84-5.76
			c-6.274-2.195-13.169-1.763-19.12,1.2c-7.924,4.75-13.669,12.42-16,21.36l-15.36,46.4c-1.703,5.317-2.355,10.914-1.92,16.48
			c0.332,10.54,7.506,19.628,17.68,22.4l17.44,5.68l-5.2,16c-14.081,3.782-22.431,18.263-18.649,32.344
			c2.328,8.668,8.901,15.56,17.449,18.296l128,41.2c2.586,0.832,5.284,1.264,8,1.28c14.58,0.049,26.439-11.731,26.488-26.311
			c0.021-6.233-2.164-12.272-6.168-17.049l45.2-140.32c0.668-2.247,0.318-4.674-0.96-6.64c0.967-1,1.825-2.099,2.56-3.28
			c0.735,1.181,1.593,2.28,2.56,3.28c-1.277,1.966-1.628,4.393-0.96,6.64l45.2,140.32c-9.378,11.164-7.931,27.817,3.232,37.195
			c6.982,5.866,16.498,7.713,25.168,4.885l128-41.2c13.906-4.383,21.625-19.21,17.242-33.116
			c-2.697-8.554-9.552-15.154-18.202-17.524l-5.2-16l17.84-5.76c9.989-2.908,16.967-11.921,17.28-22.32
			C464.463,262.626,463.702,257.028,461.891,251.732z M22.371,275.412c-3.796-0.812-6.541-4.119-6.64-8
			c-0.279-3.772,0.239-7.561,1.52-11.12l14.88-46.64c1.13-4.835,3.972-9.097,8-12c2.176-1.036,4.704-1.036,6.88,0l17.84,5.76
			l-24.72,77.68L22.371,275.412z M168.531,362.292c-1.042,3.213,0.046,6.735,2.72,8.8c3.508,2.661,4.979,7.232,3.68,11.44
			c-1.828,5.468-7.703,8.459-13.2,6.72l-128-41.2c-5.481-1.717-8.533-7.552-6.816-13.033c1.325-4.23,5.185-7.156,9.616-7.287
			c3.342-0.137,6.246-2.339,7.28-5.52l44.32-137.52l8.8,2.8l-8,24.88l-30.4,94.32c-5.593,12.017-0.385,26.293,11.632,31.886
			c1.228,0.571,2.502,1.038,3.808,1.394l60.08,19.36c2.735,0.916,5.596,1.402,8.48,1.44c11.319-0.411,20.943-8.392,23.44-19.44
			l30.4-94.32l8-24.88l8.56,2.72L168.531,362.292z M178.531,249.732l-27.92,86.56c-0.8,2.48-3.2,8-8,8
			c-1.226-0.026-2.44-0.242-3.6-0.64l-60.08-19.36c-5.84-1.92-7.44-5.92-5.12-13.12l27.92-86.72L178.531,249.732z M106.531,209.732
			l5.6-17.44l54.56,17.52l22.4,7.2l-5.6,17.28L106.531,209.732z M218.851,203.652c-0.96,3.04-7.04,4.08-12.48,2.32l-100.08-32
			c-3.391-1.007-6.366-3.084-8.48-5.92c-1.274-1.597-1.773-3.679-1.36-5.68c1.815-3.297,5.47-5.14,9.2-4.64
			c1.933,0.01,3.851,0.334,5.68,0.96h0.96c4.131,1.566,8.75-0.513,10.317-4.644c0.06-0.157,0.114-0.315,0.164-0.476
			c3.519-7.562,11.47-12.036,19.76-11.12c3.616,0.031,7.206,0.625,10.64,1.76c8.227,2.401,15.02,8.231,18.64,16
			c1.415,3.499,5.083,5.533,8.8,4.88c3.566-0.569,7.216-0.267,10.64,0.88c4.428,1.399,8.278,4.209,10.96,8
			c1.806,2.245,2.537,5.169,2,8l-0.48,1.12c-1.681,4.086,0.269,8.761,4.355,10.442c0.353,0.145,0.715,0.265,1.085,0.358h1.2
			C216.451,195.812,219.811,200.612,218.851,203.652z M245.331,203.012c-0.96-2.96,2.48-8,8.64-9.76h1.04
			c4.284-1.082,6.88-5.431,5.798-9.715c-0.093-0.37-0.213-0.732-0.358-1.085v-0.56c-0.615-2.796,0.029-5.72,1.76-8
			c2.682-3.791,6.532-6.601,10.96-8c3.424-1.147,7.074-1.448,10.64-0.88c3.717,0.653,7.385-1.381,8.8-4.88
			c3.62-7.768,10.413-13.599,18.64-16c3.434-1.135,7.024-1.728,10.64-1.76c8.139-0.912,15.977,3.375,19.6,10.72
			c0.567,2.211,2.052,4.073,4.08,5.12c2.086,0.938,4.474,0.938,6.56,0l1.04-0.48c6.48-2.08,13.52,0,14.8,3.76
			c0.413,2.001-0.086,4.083-1.36,5.68c-2.114,2.836-5.089,4.913-8.48,5.92l-100.08,32
			C252.371,207.732,246.291,206.132,245.331,203.012z M362.691,224.932l27.92,86.72c2.32,7.2,0.72,11.2-5.12,13.12l-60.08,19.52
			c-1.16,0.398-2.374,0.614-3.6,0.64c-4.96,0-7.36-5.84-8-8l-28.08-87.2L362.691,224.932z M280.771,234.532l-5.6-17.28l22.4-7.2
			l54.56-17.76l5.6,17.28L280.771,234.532z M437.251,334.932c1.786,5.5-1.222,11.408-6.72,13.2l-128,41.2
			c-5.497,1.739-11.372-1.252-13.2-6.72c-1.299-4.208,0.172-8.779,3.68-11.44c2.674-2.065,3.762-5.587,2.72-8.8l-44.24-137.52
			l8.56-2.72l8,24.88l30.4,94.4c2.497,11.048,12.121,19.029,23.44,19.44c2.884-0.038,5.745-0.524,8.48-1.44l60.08-19.36
			c12.787-3.49,20.324-16.685,16.834-29.472c-0.357-1.306-0.823-2.58-1.394-3.808l-30.4-94.32l-8-24.88l8.8-2.8l44.24,137.52
			c1.034,3.181,3.938,5.383,7.28,5.52C432.124,328.015,435.871,330.841,437.251,334.932z M448.131,267.012
			c-0.099,3.881-2.844,7.188-6.64,8l-17.36,6.08l-25.12-78l17.84-5.76c2.176-1.036,4.704-1.036,6.88,0
			c4.044,2.923,6.888,7.216,8,12.08l15.28,46.88C448.098,259.755,448.478,263.4,448.131,267.012z"/>
	</g>
</g>
<g>
	<g>
		<path d="M230.691,58.772c-4.418,0-8,3.582-8,8v61.52c0,4.418,3.582,8,8,8s8-3.582,8-8v-61.52
			C238.691,62.354,235.109,58.772,230.691,58.772z"/>
	</g>
</g>
<g>
	<g>
		<path d="M292.675,66.258c-3.65-1.575-7.902-0.231-9.984,3.155l-32,61.52c-1.999,3.891-0.503,8.666,3.36,10.72
			c3.91,2.053,8.745,0.549,10.8-3.36l32-61.52C298.601,72.716,296.732,68.008,292.675,66.258z"/>
	</g>
</g>
<g>
	<g>
		<path d="M211.222,131.954c-0.152-0.353-0.33-0.694-0.531-1.021l-32-61.52c-2.314-3.764-7.242-4.938-11.005-2.624
			c-3.386,2.082-4.73,6.334-3.155,9.984l32,61.52c1.75,4.057,6.458,5.926,10.515,4.176
			C211.102,140.718,212.972,136.01,211.222,131.954z"/>
	</g>
</g>
</svg>
