<?xml version="1.0" encoding="iso-8859-1"?>
<!-- Generator: Adobe Illustrator 19.0.0, SVG Export Plug-In . SVG Version: 6.00 Build 0)  -->
<svg version="1.1" id="Layer_1" xmlns="http://www.w3.org/2000/svg" xmlns:xlink="http://www.w3.org/1999/xlink" x="0px" y="0px"
	 viewBox="0 0 512 512" style="enable-background:new 0 0 512 512;" xml:space="preserve">
<g>
	<g>
		<path d="M426.667,136.58h-51.2V85.267c0-47.053-38.281-85.22-85.333-85.22h-204.8C38.281,0.047,0,38.214,0,85.267v273.068
			c0,16.46,20.957,23.257,30.72,10.24l66.598-88.798c3.23-4.307,8.193-6.777,13.616-6.777h25.6v51.2
			c0,47.053,38.281,85.333,85.333,85.333h179.2c5.423,0,10.386,2.47,13.616,6.778l66.598,88.797
			c9.828,13.105,30.72,6.131,30.72-10.24V221.8C512,174.747,473.719,136.58,426.667,136.58z M136.533,221.8v17.18h-25.6
			c-16.03,0-31.329,7.524-40.922,20.317l-35.878,47.837V85.267c0-28.232,22.968-51.2,51.2-51.2h204.8
			c28.232,0,51.2,22.968,51.2,51.2v51.314H221.867C174.814,136.58,136.533,174.747,136.533,221.8z M477.867,443.668l-35.876-47.837
			c-9.595-12.793-24.892-20.317-40.924-20.317h-179.2c-28.232,0-51.2-23.081-51.2-51.314V221.8c0-28.232,22.968-51.2,51.2-51.2
			h204.8c28.232,0,51.2,22.968,51.2,51.2V443.668z"/>
	</g>
</g>
<g>
	<g>
		<circle cx="256" cy="272.999" r="17.067"/>
	</g>
</g>
<g>
	<g>
		<circle cx="324.267" cy="272.999" r="17.067"/>
	</g>
</g>
<g>
	<g>
		<circle cx="392.533" cy="272.999" r="17.067"/>
	</g>
</g>
<g>
</g>
<g>
</g>
<g>
</g>
<g>
</g>
<g>
</g>
<g>
</g>
<g>
</g>
<g>
</g>
<g>
</g>
<g>
</g>
<g>
</g>
<g>
</g>
<g>
</g>
<g>
</g>
<g>
</g>
</svg>
